<svg id="Group_338" data-name="Group 338" xmlns="http://www.w3.org/2000/svg" width="1366" height="271.353" viewBox="0 0 1366 271.353">
  <path id="Path_5620" data-name="Path 5620" d="M2.406,1.533C.893,2.014,1.236.866.482.686.454.942.41,1.183,0,1.11.067-1.176,1.953.635,2.406,1.533Z" transform="translate(413.755 37.383)" fill="#fff" fill-rule="evenodd"/>
  <path id="Path_5621" data-name="Path 5621" d="M.088,3.385c-.414-1.352.756-1.309.96-2.116,1.5-.216,2.327,1,1.442-.423C3.688.913,3.977.179,4.894,0c-.036,1.576-.721,1.363.48,2.116-2.25.437-1.016.063-2.4,1.269C3.383,1.817.819,3.315.088,3.385Z" transform="translate(291.556 27.494)" fill="#fff" fill-rule="evenodd"/>
  <path id="Path_5622" data-name="Path 5622" d="M.3,2.539C7.006,4.527,9.183.722,14.726,0c.04.6.08,1.2-.481,1.269C14.674,2.414,15.405.378,15.689,0c.447.451,1.773.134,1.44,1.269.579-.477.871-1.2,2.406-.846-.795,1.878.989-.115,1.437,2.116.933-1.236,2.439-.35,3.369-.847q.132,1.384-1.443,1.271c.722,1.4,1.175-.88,2.405-.424-.317.433-1.1.438-.962,1.27,2.973-1.669,9.326-2.737,12.018-2.117-.17.488-.846,1.075-.959.423C35.236,4.2,40.529.347,42.128,1.269c.64-2.678,7.907.163,11.54.423.7.05,1.452-.843,1.443-.846.04.007,5.028,2.936,6.729.846-.391,1.391,6.441.457,5.77-.423,1.514-.2,1.089,1.3,2.884.846-.408.631-1.55.613-2.4.848,4.323,1.719,7.572-.312,10.579-1.694a1.19,1.19,0,0,1,.963,1.27c1.038.074.212-1.5.476-2.116,1.327,1.24,2.532.658,3.368,1.692C86.929-.273,91.918,1.733,93.568.846c-.417.613,1.7.892.962,1.269,2.221,1.015,2-1.095,4.81-.846,1.05.287-.91,1.407-1.445,1.694-.161,1.05,2.836-1.861,4.81-1.694,1.163.385-1.09,1.251-.481,2.54,2.612-1.389,1.023-1.651,2.881-2.963.657.131.4,1.059.485,1.693,2.251-1.611,4.462-2.45,6.253-.424.529-2.5,2.1.744,1.918-1.692,1.44,1.349,2.445.141,3.365,1.692,1.44-.278-.456-.9,0-1.692,1.859,1.663,5,.74,5.29,3.806-.085-1.684,1.06-3.672,2.882-3.383,1.242.1-.659.731,0,1.693,1.091-.311,1.053-1.613,2.406-1.693,2.284,1.477,4.738,2.786,7.212,2.117,1.2.292-.888,1.126-.482,2.112.271-.786,2.446-1.574,1.922.423,1.112.132.536-1.221,1.445-1.269.854.039,2.317,2.8,2.884.423.889.067.3,1.434.963,1.7,1.637-.179-.733-2.323.48-2.118,1.962-.126.256.885.481,1.693.516-1.654,4.039.547,2.881-1.27,1.517.517,2.547,1.708,4.329.846-1.168.846-.481.67-.964,2.116,1.709-.448,2.287.911,4.329-.419.8.837-.043.538,0,1.689,2.107.892,8.922-1.9,9.137.423,2.193.618,5.414-1.237,7.209.423,1.7-1.739,4.145.344,6.729-.846.1.724-.818,1.095,0,1.267,1.7-.05.132-.613.961-1.691,3.5.68.755-.593,4.33-.423-.079.5-.876.359-1.442.423,3.913.88,4.19-.039,6.73-.423,1.042-.07.216,1.5.481,2.114.959.6,6.646-.6,4.807.846,1,1.321,5.019-2.284,5.285.848,1.146-1.488,3.38-.316,2.122.826a2.1,2.1,0,0,0-.677.444,2.79,2.79,0,0,0,.677-.444,14.04,14.04,0,0,1,8.935-.4c-.309.427-1.1.436-.957,1.27,1.029.91,2.683.214,3.363-.423.6,1.367-1.554.322-.962,1.69,1.82.091,4.337-.432,4.331,1.269,1.422-.8.761-1.823,2.4-1.692,1.162.249-1.611.816,0,1.692,1.222-2.749,7.64-.31,10.58,1.269-2.267,2.119,3.143,2.186,5.768,2.537a1.362,1.362,0,0,1-.961.846c1.217-.116,3.06.32,3.849-.846,1.68.115-.872,1.872.474,1.689,1.242-1.351,4.393-2.407,3.848-2.959,1.459-.155,1,1.379,1.443,2.116,3.146-2.082,8.442,2.365,9.615.424.712.355.7,1.36.96,2.115,2.019.225,2.689-.74,4.327-.846,2.407,2.886,7.516.667,9.618,2.536-1.036.867-2.46,1.391-2.406,2.116.773,1.187,1.8-.917,2.887-.847a1.333,1.333,0,0,1-1.442.847c1.041.633,2.7.718,4.323.846.04-1.087,2.243-.6.962-1.693.829.2,4.485.174,2.4.847.385.973,2.263-.22,2.408-.847a1.809,1.809,0,0,1,.958,1.693c1.584-.938,2.972.807,4.325,0,.585-.131,1.659,1.221.481,1.269.67.968,1.663-1.324,2.407-1.692,1.507.082,1.3,1.674,3.369,1.269-.019.411-.591.329-.964.423,1.626-.048,3.515,1.973,4.806-.423,1.47.658-.617,1.647,1.444,2.959-1.691-.2-1.584-.49-2.886,0,4.294,1.313,7.6-2.469,10.58-2.536.782.1.055.917-.753,1.194,2.8-.427,8.329-2.35,7.479.5,3.684-1.242,6,.764,10.579-1.269-.329,1.223,2.637.167,3.843.846-2.023.8-.657,1.071,0,2.536.079-1.489,3.161.058,4.81,0,3.959-.137,8.384-1.626,11.538-.847.659.424-.205.7.964,1.27,4.483-2.241,7.217,1.123,10.092,1.693-.3-.061.909-1.447,2.888-.423,3.594,1.86,10.569,1.1,16.344.423,1.643-.016,3.635,1.844,5.285.423-.572,1.312,2.227.088,1.445.843,1.371.423,4.464-1.738,4.808.423,1.186-2.527,3.733-.788,5.765-1.266-2.18.5,1.762,1.7-1.436,1.689,3.331-.012,8.826-1.162,12.5-2.112,1.374,1.171,3.35,1.655,3.366,2.961.994-.112.128-1.86.962-2.119,1.254-.493,2.066,1.31,1.922-.419.493.584,2.533,1.495,0,1.266,1.4,1.249,4.17-.347,5.287.423.177.722-.375.8-.963.849,4.481-.761,6.844,2.418,14.425,1.69.761-.073-.427-.8.48-.843,1.9-.548.981,1.388,2.888.843-.421,1.23-.722.478-1.926.423,1.439,2.612,5.843-.328,8.653-.423,2.086.786,1.368,1.4,2.4,2.959,3.929.427,8.845-.423,14.425-1.266.56-.085,1.623.484,1.922.42,1.367-.271,3.07-1.5.962,0,2.251-.889,6.356-1.638,9.615-3.379,1.767.42,2.717,1.555,4.807,1.689-1.622-.639,1.046,2.6.961,2.536.3.225,1.431-.005,1.443,0a3.491,3.491,0,0,1,.513.405c-.36.536.645.637,0,0a1.5,1.5,0,0,1,.444-.405c.841-.536,4.727.974,2.888,1.7,6.191-.962,9.864.024,16.349-2.119.252.612-1.876,1.032-.481,1.273,3.545-3.462,8.313,1.945,12.018-.85.563.067.4.771.481,1.273.989-1.748,2.138-.728,4.327-1.273,1.021.135-.69,1.312-.962,1.7,1.642.268,2.848-1.406,4.81-1.7,3.261,1.641,6.846,1.184,11.054,1.273.14.63.641.755,1.445,1.689,2.488-1.147,2.264.539,3.362.844,6.365-.624,21.264-1.733,27.4,2.119.61-.088,2.357-1.23,2.4-.426.7-.186-.043-.369,0-.847,6.53,1.087,14-2.953,19.231-1.69-.495.527-3.089.667-3.364.424-.212.377-.421.755-.957.843.8.938,2.592-.076,1.438,1.7,4.229-1.848,6.766,1.479,10.582-.426,1.055-.177,2.646,1.269,1.436,1.692,2.139.6,4.959-1.833,7.214-2.539.852.381.614,1.72,2.405,1.273a3.494,3.494,0,0,1-1.444.846c.329.253,4.909-1.093,3.844-2.119a3.36,3.36,0,0,0,3.367,0c.708,1.611-2.15.085-1.441,1.7.547-.491,3.679-1.093,2.884.843,2.221-1.406,7.885-1.248,9.617-1.692,3.543-1.06,6.371.219,10.093,2.538-.01.412-.589.329-.961.423,4.355,1.264,5.149-1.482,10.1-.846a2.215,2.215,0,0,1-1.926.846c-.836.993,2.948-.234,3.37-.846.849.9,1.667.734.962,2.116.979-.125.94-1.148,1.923-1.27.71.186-.194.543,0,1.27,4.035.11,14.45-2.137,13.458,2.116,4.824-.155,7.391,1.738,11.06,2.113a.967.967,0,0,0-.87-.8c2.693-.2,5.243-2.743,9.047-3,4.1-.28,10.052,3.654,12.491-.846a2.992,2.992,0,0,0,1.924.423c.36-.8,1.44-.295.481-1.27,1.74-.09,4.468,1.331,6.732.423,1.386,3.054,8.238.387,9.137,2.963.873-.816,4.831-3.133,5.288-.423.6-1.921,7.956-.466,3.363,1.269.783.247,3.287-1.607,4.329-2.539,1.613.381.056.944.959,1.693.82-1.793,1.073.843,3.845-.846-.2.931,2.239,1.181,2.405,2.959,2.346-1.65,2.537-.539,5.768-1.267.654,1.452,6.121,4.156,8.659,1.69,5.632,3.364,13.252,3.522,19.71,2.115,2.823.068,6.028,2.683,10.093,1.27a.423.423,0,0,1,0,.846c3.486.332,10.311.3,12.018,3.383,3.2-2.415,14.178,1.1,18.271-.85,7.928,1.641,13.4,5.182,23.556,3.809,1.319,1.1.505,1.43,0,2.539,5.875-2.241,13.623-.776,16.827,2.962a1.878,1.878,0,0,1-.48-1.27c4.584,1.17,10.557,2.558,14.907,5.078,2.118-3.123,7.7-1.041,10.576-2.965,2.231,3.1,12.591,3.684,18.266,2.542.153,2.128,5.974.411,8.175,1.687-.253-.813,7.531-1.194,9.615,0,.177-.719-.373-.8-.963-.843,5.24-1.443,8.427-1.094,13.462-1.267a2.165,2.165,0,0,0-.481,1.69c.575-1.48,4.852-2.122,4.329-.423.951-.007.61-1.154,1.92-.844.8,1.27,2.7,1.571,3.365,2.956a33.826,33.826,0,0,0,3.366-.846c1.238.107-.661.731,0,1.693,4.478,0,9.709-2.214,10.579,0,.948-.046,1.612-.439,2.882.849V79.938c2.421,3.4,6.841,1.961,11.537,2.116.564.07.409.77.484,1.27,6.18-.6,7.725,1.473,12.5,0,.637-.1.344.849-.253,1.2-.239.025-.469.034-.711.074a.816.816,0,0,0,.711-.074c4.351-.5,8.238,1.069,12.271,1.339.128,1.24-1.09,1.3-.964,2.54.854.785,1.406-.183,2.407-.423-.214.377-.422.754-.962.846.131,1.641,3.856-.8,3.845,1.693,3.713-1.026,7.934.1,12.5-1.693,3.4,1.814,8.609,1.032,12.5,0a10.62,10.62,0,0,0,6.73,2.539c.712,2.511,3.076,1.659,4.325,4.649.852-2.841,4.059-.11,4.81-1.69.565.067.4.774.482,1.267,4.993-1.772,9.277-.086,13.938-2.114,2.173,2.609,4.4,1.087,7.693,1.693q.135,1.384-1.44,1.27c1.212,1.275,6.3-.3,1.44,0a2.5,2.5,0,0,0,.483-2.116c.888.064.295,1.434.963,1.69,1.578-2.46,5.294-1.431,8.17-1.267-.716.493-1.176,1.224-2.4,1.267,5.232.094,11.052-.591,16.345,1.7.7-.368,1.527-.633,1.444-1.7.571.916,1.592,2.706,2.882,1.7-1.067.609.606,1.032-.48,1.27,2.892-.776,3.779,2.17,8.173,1.266.741.222.031.442-.482.423,6.163,4.509,18.47-4.329,26.926.846,3.669-1.053,7.481.634,11.056-.423-1.823,2.183,5.547-1.29,7.693,1.693-.349-1.391.955-.648.963,0,.673-.152.04-.745-.482-.846a3.414,3.414,0,0,1,1.443-.847c.152.536.619,1.544,2.886,1.27-.558.5-.547,1.5-.482,2.539.663,1.346.474-1.495.482-2.116,6.377-1.689,8.633,3.032,12.5,2.536.33,1.138-.993.819-1.443,1.267a2.263,2.263,0,0,0,2.882.849c-.167-.664-.846.371-.956-.423.113-.457.951-.287.956-.85,2.406,1.3,3.3,1.288,6.249.85a4.018,4.018,0,0,1,1.441,2.539c2.146.058-.424-1.087,0-2.116,2.045,2.64,3.966.633,5.29,4.229.652-.54.963-1.285,1.445,0,.712-.183-.191-.54,0-1.27,1.6-.134.521,2.079,2.884,1.27-.068.782-1.629.261-1.92.846-1.064,1.333,2.887-1.379,3.365,0,.65-.131.4-1.057.481-1.692.445.24.729,1.177.958.423.716.185-.187.541,0,1.269.926-.174.381-1.638,1.927-1.269,1.142.127-.536,1.144-.964,1.269.8.122,3.418-1.775,3.843-3.383.578.9,2.267.826,2.409,2.114.768-.631-.412-2.116,1.92-2.114.242,1.194.509-.158.962,1.267.55-1.281,1.887.107.963-1.267.961-.142,1.5.086,1.443.844a21.7,21.7,0,0,0,2.4-1.686c1.938.523,2.422,1.677,4.8.842.352,1.855-.956-.34-.959.844,1.83,2.131,5.087.721,5.768,3.385,5.546-1.644,14.028.031,16.344-3.8.653.13.4,1.059.48,1.69a8.51,8.51,0,0,1,4.329-2.114c-2.691,1.4,3.495.6,3.849-.419.65.127.4,1.053.48,1.686,1.139-.207,2.52-1.827,5.284-.423.561-.067.409-.77.48-1.263.787,1.254,6.4-1.033,8.176,1.263,1.21-.7,1.362-1.044,2.884-2.109a2.942,2.942,0,0,1,.962,1.265c-3.622-.039.773,2.089-1.442,3.383.879.606,2.516-1.711,2.886-2.959.851,1.08,1.934,1.958,2.4,3.385,3.3.381,7.564-1.017,9.621-3.385,2.17-.128,3.244,1.485,5.764.42a4.867,4.867,0,0,1-.481,4.655c-.373,1.1,1.661-2.3,2.405-2.962.582,1.205,2.592.852,2.885,1.272.565-.07.409-.773.482-1.272,1.1-.116,1.81.1,1.924.846.646-.131.4-1.057.476-1.692a2.324,2.324,0,0,1,1.445,1.269c.709-.846,3.228-1.945,2.4.423,1.751.271.592-2.012,1.925-2.116,1.542.679-1.689,1.583,0,2.542.507-.31.054-1.276.962-2.118.63.148.753.745,1.439.846.191,1.013-2.187-.232-1.439,1.272,1-.932,1.552.368,2.4-.426-1.352,1.522-.218,1.172,0,2.962.336-2.393,5.681-1.419,4.325-.423.679.752,1.631-1.811,2.406-1.27.716.183-.191.542,0,1.27,1.033.2,2.162-2.563,2.405-.423.564-.07.407-.773.481-1.27.563.07.4.771.481,1.27a9.225,9.225,0,0,1,2.4-1.69c.651.128.4,1.056.481,1.69.565-.07.406-.773.48-1.27,1.4.366.541.63.482,1.693,1.689-.064,1.153-2.086,3.364-1.693-1.478,2.171-.051.183,1.921,1.27-1.173-1.678.723.471.48-1.27,1,1.285,2.73.058,5.291.423,6.641-2.645,13.592-3.592,17.309-6.767a151.893,151.893,0,0,0,16.821-.85c-.2.95-2.363.177-3.363.424,8.25.435,15.831-.753,25.963.849,1.24.1-.66.728,0,1.692,1.057-.48,1.6-1.415,2.886-1.692.139,1.111-1.868.335-1.447,1.692,3.721.314,5.322-1.166,9.137,0-1.776-1.26,2.276-.432,2.882,0,3.736-2.145,6.464-.243,8.173-2.115,1.82-.156,1.979,6.359,1.924,3.806.146-1.705.177-3.511,1.921-3.806.656.131.4,1.059.481,1.7a5.406,5.406,0,0,1,.825-.4V271.353H0V2.667C.1,2.622.2,2.585.3,2.539Z" fill="#fff" fill-rule="evenodd"/>
</svg>
